<svg xmlns="http://www.w3.org/2000/svg" viewBox="0 0 200 200" enable-background="new 0 0 200 200"><symbol viewBox="-132 -15 263 30"><polygon fill="#999" points="131,-15 -132,-15 -132,15 131,15 	"/></symbol><symbol viewBox="-180 -12 360 24"><polygon fill="#ccc" points="180,-12 -180,-12 -180,12 180,12 	"/></symbol><symbol viewBox="-83 -83 165 165"><polygon fill="#ccc" points="82,-83 -83,-83 -83,82 82,82 	"/><line fill="none" stroke="#fff" stroke-width="2" stroke-miterlimit="10" x1="-70.08" y1="70.5" x2="70.99" y2="-70.57"/><line fill="none" stroke="#fff" stroke-width="2" stroke-miterlimit="10" x1="70.99" y1="70.5" x2="-70.08" y2="-70.57"/></symbol><symbol viewBox="-375 -9 750 18"><polygon fill="#e6e6e6" points="375,-9 -375,-9 -375,9 375,9 	"/></symbol><polygon fill="#ffa26e" points="100.369,0.798 131.092,63.047 199.787,73.029 150.077,121.483 161.812,189.901 100.369,157.598
				38.927,189.901 50.662,121.483 0.953,73.029 69.647,63.047 			"/></svg>
